<svg width="6" height="4" viewBox="0 0 6 4" fill="none" xmlns="http://www.w3.org/2000/svg">
<path d="M2.71763 3.1775L0.919129 1.12175C0.706879 0.879875 0.879379 0.5 1.2015 0.5H4.7985C4.8706 0.499938 4.94118 0.520658 5.0018 0.559678C5.06242 0.598698 5.1105 0.654364 5.1403 0.72001C5.17009 0.785656 5.18034 0.858499 5.1698 0.929817C5.15926 1.00113 5.12839 1.0679 5.08088 1.12213L3.28238 3.17712C3.24718 3.2174 3.20377 3.24969 3.15507 3.2718C3.10637 3.29392 3.0535 3.30537 3 3.30537C2.94651 3.30537 2.89364 3.29392 2.84494 3.2718C2.79624 3.24969 2.75283 3.2174 2.71763 3.17712V3.1775Z" fill="#2D334D"/>
</svg>
