<svg width="6" height="4" viewBox="0 0 6 4" fill="none" xmlns="http://www.w3.org/2000/svg">
<path d="M2.71763 0.822508L0.919129 2.87788C0.706879 3.12051 0.879379 3.50001 1.2015 3.50001H4.7985C4.8706 3.50007 4.94118 3.47935 5.0018 3.44033C5.06242 3.40131 5.1105 3.34565 5.1403 3.28C5.17009 3.21435 5.18034 3.14151 5.1698 3.07019C5.15926 2.99888 5.12839 2.93211 5.08088 2.87788L3.28238 0.822883C3.24718 0.782605 3.20377 0.750323 3.15507 0.728204C3.10637 0.706085 3.0535 0.694641 3 0.694641C2.94651 0.694641 2.89364 0.706085 2.84494 0.728204C2.79624 0.750323 2.75283 0.782605 2.71763 0.822883V0.822508Z" fill="#2D334D"/>
</svg>
