<svg width="24" height="38" viewBox="0 0 24 38" fill="none" xmlns="http://www.w3.org/2000/svg">
<g clip-path="url(#clip0_1007_34)">
<path fill-rule="evenodd" clip-rule="evenodd" d="M8.8125 33.7812C8.8125 34.9499 8.34827 36.0706 7.52194 36.8969C6.69561 37.7233 5.57486 38.1875 4.40625 38.1875C3.23764 38.1875 2.11689 37.7233 1.29056 36.8969C0.464228 36.0706 0 34.9499 0 33.7812C0 32.6126 0.464228 31.4919 1.29056 30.6656C2.11689 29.8392 3.23764 29.375 4.40625 29.375C5.57486 29.375 6.69561 29.8392 7.52194 30.6656C8.34827 31.4919 8.8125 32.6126 8.8125 33.7812ZM8.8125 19.0937C8.8125 20.2624 8.34827 21.3831 7.52194 22.2094C6.69561 23.0358 5.57486 23.5 4.40625 23.5C3.23764 23.5 2.11689 23.0358 1.29056 22.2094C0.464228 21.3831 0 20.2624 0 19.0937C0 17.9251 0.464228 16.8044 1.29056 15.9781C2.11689 15.1517 3.23764 14.6875 4.40625 14.6875C5.57486 14.6875 6.69561 15.1517 7.52194 15.9781C8.34827 16.8044 8.8125 17.9251 8.8125 19.0937V19.0937ZM8.8125 4.40625C8.8125 5.57486 8.34827 6.69561 7.52194 7.52194C6.69561 8.34827 5.57486 8.8125 4.40625 8.8125C3.23764 8.8125 2.11689 8.34827 1.29056 7.52194C0.464228 6.69561 0 5.57486 0 4.40625C0 3.23764 0.464228 2.11689 1.29056 1.29056C2.11689 0.464229 3.23764 0 4.40625 0C5.57486 0 6.69561 0.464229 7.52194 1.29056C8.34827 2.11689 8.8125 3.23764 8.8125 4.40625V4.40625Z" fill="#6F7CA0"/>
<path fill-rule="evenodd" clip-rule="evenodd" d="M23.8125 33.7812C23.8125 34.9499 23.3483 36.0706 22.5219 36.8969C21.6956 37.7233 20.5749 38.1875 19.4063 38.1875C18.2376 38.1875 17.1169 37.7233 16.2906 36.8969C15.4642 36.0706 15 34.9499 15 33.7812C15 32.6126 15.4642 31.4919 16.2906 30.6656C17.1169 29.8392 18.2376 29.375 19.4063 29.375C20.5749 29.375 21.6956 29.8392 22.5219 30.6656C23.3483 31.4919 23.8125 32.6126 23.8125 33.7812ZM23.8125 19.0937C23.8125 20.2624 23.3483 21.3831 22.5219 22.2094C21.6956 23.0358 20.5749 23.5 19.4063 23.5C18.2376 23.5 17.1169 23.0358 16.2906 22.2094C15.4642 21.3831 15 20.2624 15 19.0937C15 17.9251 15.4642 16.8044 16.2906 15.9781C17.1169 15.1517 18.2376 14.6875 19.4063 14.6875C20.5749 14.6875 21.6956 15.1517 22.5219 15.9781C23.3483 16.8044 23.8125 17.9251 23.8125 19.0937ZM23.8125 4.40625C23.8125 5.57486 23.3483 6.69561 22.5219 7.52194C21.6956 8.34827 20.5749 8.8125 19.4063 8.8125C18.2376 8.8125 17.1169 8.34827 16.2906 7.52194C15.4642 6.69561 15 5.57486 15 4.40625C15 3.23764 15.4642 2.11689 16.2906 1.29056C17.1169 0.464229 18.2376 0 19.4063 0C20.5749 0 21.6956 0.464229 22.5219 1.29056C23.3483 2.11689 23.8125 3.23764 23.8125 4.40625Z" fill="#6F7CA0"/>
</g>
<defs>
<clipPath id="clip0_1007_34">
<rect width="24" height="38" fill="white"/>
</clipPath>
</defs>
</svg>
