<svg width="10" height="8" viewBox="0 0 10 8" fill="none" xmlns="http://www.w3.org/2000/svg">
<path fill-rule="evenodd" clip-rule="evenodd" d="M3.80254 7.40929C3.79244 7.3974 3.78257 7.3852 3.77294 7.37269L0.38789 2.9765C0.387747 2.97631 0.388033 2.97669 0.38789 2.9765C-0.475422 1.85608 0.176161 -3.02347e-07 1.61309 -2.39537e-07L8.38377 5.64195e-08C8.38386 5.64236e-08 8.38368 5.64154e-08 8.38377 5.64195e-08C8.70056 -0.00013255 9.00862 0.10355 9.27039 0.294996C9.53204 0.486351 9.73536 0.756115 9.8601 1.06838C9.98475 1.3804 10.027 1.72461 9.98326 2.06084C9.93954 2.39697 9.81113 2.71533 9.60957 2.97688L6.22452 7.37146C6.07498 7.56573 5.88837 7.72433 5.67682 7.83349C5.46497 7.94281 5.23361 8 4.99857 8C4.76353 8 4.53217 7.94281 4.32031 7.83349C4.12246 7.7314 3.94679 7.58655 3.80254 7.40929ZM5.36527 6.88329C5.42685 6.84075 5.48247 6.78766 5.53011 6.72572L8.91559 2.33057C9.00502 2.2146 9.06313 2.0718 9.08297 1.91927C9.10281 1.76674 9.08353 1.61095 9.02744 1.47055C8.97135 1.33015 8.88083 1.21109 8.76673 1.12764C8.65262 1.04418 8.51976 0.999868 8.38405 1L1.61309 0.999999C1.00672 0.999999 0.682007 1.81166 1.08154 2.32977L4.46703 6.72652C4.46711 6.72663 4.46694 6.72641 4.46703 6.72652C4.53317 6.8123 4.61528 6.88106 4.70667 6.92822C4.79835 6.97552 4.89788 7 4.99857 7C5.09926 7 5.19878 6.97552 5.29046 6.92822C5.31623 6.91492 5.3412 6.89991 5.36527 6.88329Z" fill="#6F7CA0"/>
</svg>
